HIERARCHY
ROOT Hips
{
	OFFSET 0.000000 0.000000 0.000000
	CHANNELS 6 Xposition Yposition Zposition Xrotation Yrotation Zrotation
	JOINT Spine
	{
		OFFSET 0.000000 0.053497 0.080245
		CHANNELS 3 Xrotation Yrotation Zrotation
		JOINT Spine1
		{
			OFFSET 0.000000 0.018579 0.105368
			CHANNELS 3 Xrotation Yrotation Zrotation
			JOINT Spine2
			{
				OFFSET 0.000000 0.009325 0.106586
				CHANNELS 3 Xrotation Yrotation Zrotation
				JOINT Spine3
				{
					OFFSET 0.000000 0.000000 0.106993
					CHANNELS 3 Xrotation Yrotation Zrotation
					JOINT Neck
					{
						OFFSET 0.000000 -0.040122 0.280858
						CHANNELS 3 Xrotation Yrotation Zrotation
						JOINT Head
						{
							OFFSET 0.000000 -0.025546 0.144881
							CHANNELS 3 Xrotation Yrotation Zrotation
							End Site
							{
								OFFSET 0.000000 0.000000 0.000000
							}
						}
					}
					JOINT RightShoulder
					{
						OFFSET -0.032541 -0.054234 0.175720
						CHANNELS 3 Xrotation Yrotation Zrotation
						JOINT RightArm
						{
							OFFSET -0.161619 0.000000 0.000000
							CHANNELS 3 Xrotation Yrotation Zrotation
							JOINT RightForeArm
							{
								OFFSET -0.257104 0.000000 0.000000
								CHANNELS 3 Xrotation Yrotation Zrotation
								JOINT RightHand
								{
									OFFSET -0.273485 0.000000 0.000000
									CHANNELS 3 Xrotation Yrotation Zrotation
									JOINT RightHandEnd
									{
										OFFSET -0.070844 0.000000 0.000000
										CHANNELS 3 Xrotation Yrotation Zrotation
										End Site
										{
											OFFSET 0.000000 0.000000 0.000000
										}
									}
									JOINT RightHandThumb1
									{
										OFFSET -0.028338 -0.047230 -0.018892
										CHANNELS 3 Xrotation Yrotation Zrotation
										End Site
										{
											OFFSET 0.000000 0.000000 0.000000
										}
									}
								}
							}
						}
					}
					JOINT LeftShoulder
					{
						OFFSET 0.032541 -0.054234 0.175720
						CHANNELS 3 Xrotation Yrotation Zrotation
						JOINT LeftArm
						{
							OFFSET 0.161619 0.000000 0.000000
							CHANNELS 3 Xrotation Yrotation Zrotation
							JOINT LeftForeArm
							{
								OFFSET 0.257104 0.000000 0.000000
								CHANNELS 3 Xrotation Yrotation Zrotation
								JOINT LeftHand
								{
									OFFSET 0.273485 0.000000 0.000000
									CHANNELS 3 Xrotation Yrotation Zrotation
									JOINT LeftHandEnd
									{
										OFFSET 0.070844 0.000000 0.000000
										CHANNELS 3 Xrotation Yrotation Zrotation
										End Site
										{
											OFFSET 0.000000 0.000000 0.000000
										}
									}
									JOINT LeftHandThumb1
									{
										OFFSET 0.028338 -0.047230 -0.018892
										CHANNELS 3 Xrotation Yrotation Zrotation
										End Site
										{
											OFFSET 0.000000 0.000000 0.000000
										}
									}
								}
							}
						}
					}
				}
			}
		}
	}
	JOINT RightUpLeg
	{
		OFFSET -0.096537 0.000000 -0.028202
		CHANNELS 3 Xrotation Yrotation Zrotation
		JOINT RightLeg
		{
			OFFSET 0.000000 0.000000 -0.431842
			CHANNELS 3 Xrotation Yrotation Zrotation
			JOINT RightFoot
			{
				OFFSET 0.000000 0.000000 -0.456398
				CHANNELS 3 Xrotation Yrotation Zrotation
				JOINT RightToeBase
				{
					OFFSET 0.000000 -0.128905 -0.046918
					CHANNELS 3 Xrotation Yrotation Zrotation
					End Site
					{
						OFFSET 0.000000 0.000000 0.000000
					}
				}
			}
		}
	}
	JOINT LeftUpLeg
	{
		OFFSET 0.096537 0.000000 -0.028202
		CHANNELS 3 Xrotation Yrotation Zrotation
		JOINT LeftLeg
		{
			OFFSET 0.000000 0.000000 -0.431842
			CHANNELS 3 Xrotation Yrotation Zrotation
			JOINT LeftFoot
			{
				OFFSET 0.000000 0.000000 -0.456398
				CHANNELS 3 Xrotation Yrotation Zrotation
				JOINT LeftToeBase
				{
					OFFSET 0.000000 -0.128905 -0.046918
					CHANNELS 3 Xrotation Yrotation Zrotation
					End Site
					{
						OFFSET 0.000000 0.000000 0.000000
					}
				}
			}
		}
	}
}
MOTION
Frames: 6
Frame Time: 0.033333
-0.045458 -0.158605 0.906219 6.479800 0.088500 -3.036800 12.459000 0.548000 0.496300 8.011400 0.683000 -0.031500 -1.006700 -0.323900 -1.913300 -0.907500 -0.091000 -0.094700 6.691100 -1.179000 -1.194500 -10.701900 -1.183100 -1.009400 6.087500 -1.239300 -13.956300 -70.860800 -30.758100 -86.077000 -0.000100 0.000100 112.664600 -39.163700 -6.663000 -1.051400 0.000000 0.000000 0.000000 0.000000 0.000000 0.000000 5.184200 3.796600 8.383700 -63.352100 29.035100 79.990000 -0.000100 -0.000100 -104.799400 -31.851100 -6.250300 -6.512900 0.000000 0.000000 0.000000 0.000000 0.000000 0.000000 -25.883100 4.517400 -8.177100 45.624100 0.000000 0.000000 -25.956100 -6.240600 -24.576000 1.396200 0.000000 0.000000 -29.994100 -4.113000 -3.625000 45.716800 0.000000 0.000000 -29.080200 18.054800 18.401800 12.737200 0.000000 0.000000 
-0.043708 -0.149095 0.910163 7.350800 0.249200 -3.134100 13.736300 0.519200 0.545500 8.516700 0.658300 -0.033300 -0.939300 -0.299900 -1.886600 -0.878700 -0.105800 -0.080800 7.587800 -1.386000 -1.161500 -11.347600 -1.160500 -0.899700 6.164000 -1.306300 -14.386300 -71.201400 -31.692100 -86.300200 -0.000100 0.000100 111.968700 -39.789900 -5.951300 -0.975600 0.000000 0.000000 0.000000 0.000000 0.000000 0.000000 5.559600 3.717800 8.808900 -62.818500 29.837500 79.536400 -0.000100 -0.000100 -104.213800 -32.176500 -6.617000 -6.325700 0.000000 0.000000 0.000000 0.000000 0.000000 0.000000 -26.754000 4.315700 -8.299000 44.314300 0.000000 0.000000 -24.757100 -6.274300 -24.247900 1.741200 0.000000 0.000000 -30.901200 -4.372500 -3.363800 44.471800 0.000000 0.000000 -27.760900 18.048400 17.995400 12.849100 0.000000 0.000000 
-0.041176 -0.140129 0.913402 8.176400 0.313500 -3.338500 14.927800 0.562300 0.568600 8.981300 0.644900 -0.019400 -0.758400 -0.116900 -1.861400 -0.870000 -0.155600 -0.068900 8.264000 -1.807400 -1.125300 -11.791900 -1.026400 -0.588700 6.144600 -1.528700 -14.558000 -71.369300 -32.503400 -86.189000 -0.000100 0.000100 111.009000 -40.186500 -5.500200 -1.283900 0.000000 0.000000 0.000000 0.000000 0.000000 0.000000 5.709100 3.703400 9.929600 -62.067800 30.844000 78.880800 -0.000100 -0.000100 -103.815300 -32.647000 -6.979300 -6.175600 0.000000 0.000000 0.000000 0.000000 0.000000 0.000000 -27.648500 4.197600 -8.240700 43.159800 0.000000 0.000000 -23.737900 -6.306400 -23.917800 2.250600 0.000000 0.000000 -31.719700 -4.482300 -3.079200 43.300800 0.000000 0.000000 -26.688900 17.771100 17.765400 12.942000 0.000000 0.000000 
-0.037673 -0.131989 0.915147 8.970700 0.317100 -3.449000 15.917100 0.571100 0.606300 9.304100 0.607300 -0.000800 -0.607200 0.004300 -1.764300 -0.817800 -0.207800 -0.039500 9.099600 -2.001400 -1.023400 -12.153700 -0.864700 -0.321000 6.264700 -1.532400 -14.695300 -71.656300 -33.043800 -86.140400 -0.000100 0.000100 110.259000 -40.338200 -5.971500 -1.718300 0.000000 0.000000 0.000000 0.000000 0.000000 0.000000 5.811300 3.646200 11.045100 -61.817100 31.711200 78.589800 -0.000100 -0.000100 -103.624800 -33.011600 -7.039300 -6.137500 0.000000 0.000000 0.000000 0.000000 0.000000 0.000000 -28.681700 4.241100 -8.154800 42.444800 0.000000 0.000000 -23.040600 -6.150200 -23.640600 3.027600 0.000000 0.000000 -32.707800 -4.387100 -2.922100 42.600500 0.000000 0.000000 -25.913500 17.387300 17.641500 13.051100 0.000000 0.000000 
-0.033556 -0.124851 0.915487 9.665500 0.307200 -3.317400 16.691700 0.465100 0.694000 9.507200 0.518200 0.021000 -0.587600 -0.002800 -1.572800 -0.711300 -0.233800 -0.002400 10.266600 -1.939400 -0.890900 -12.472700 -0.753500 -0.244100 6.471900 -1.234800 -14.978100 -72.032500 -33.375500 -86.297100 -0.000100 0.000100 109.863300 -40.395500 -7.093100 -1.988300 0.000000 0.000000 0.000000 0.000000 0.000000 0.000000 5.994700 3.503600 11.676200 -62.149700 32.351100 78.792000 -0.000100 -0.000100 -103.454900 -33.216900 -7.031400 -6.188800 0.000000 0.000000 0.000000 0.000000 0.000000 0.000000 -29.776000 4.443600 -8.170100 42.274800 0.000000 0.000000 -22.738000 -5.740500 -23.359000 3.807700 0.000000 0.000000 -33.809600 -4.137900 -2.865900 42.367000 0.000000 0.000000 -25.431500 17.204200 17.402300 13.012900 0.000000 0.000000 
-0.029296 -0.118963 0.915129 10.102500 0.295000 -2.967100 17.362400 0.265200 0.834100 9.674800 0.401300 0.047200 -0.601300 -0.036300 -1.384300 -0.593800 -0.235600 0.023400 11.503900 -1.882600 -0.805500 -12.719400 -0.683200 -0.259300 6.613700 -0.863400 -15.296900 -72.266500 -33.650900 -86.430600 -0.000100 0.000100 109.599100 -40.291700 -8.199100 -2.059200 0.000000 0.000000 0.000000 0.000000 0.000000 0.000000 6.210900 3.345000 12.014700 -62.583500 32.991400 79.068400 -0.000100 -0.000100 -103.325200 -33.287500 -7.087600 -6.190500 0.000000 0.000000 0.000000 0.000000 0.000000 0.000000 -30.615900 4.733300 -8.244700 42.442200 0.000000 0.000000 -23.040700 -5.291200 -23.016700 4.062400 0.000000 0.000000 -34.655400 -3.778500 -2.869500 42.322900 0.000000 0.000000 -25.444100 17.210100 17.145500 12.533700 0.000000 0.000000 
